<svg xmlns="http://www.w3.org/2000/svg" width="1600" height="1180" viewBox="0 0 1600 1180"><defs><marker id="arrow22d3ee" viewBox="0 0 10 10" refX="8.5" refY="5" markerWidth="6" markerHeight="6" orient="auto"><path d="M 0 0 L 10 5 L 0 10 z" fill="#22d3ee"/></marker><marker id="arrow333a63" viewBox="0 0 10 10" refX="8.5" refY="5" markerWidth="6" markerHeight="6" orient="auto"><path d="M 0 0 L 10 5 L 0 10 z" fill="#333a63"/></marker><marker id="arrow34d399" viewBox="0 0 10 10" refX="8.5" refY="5" markerWidth="6" markerHeight="6" orient="auto"><path d="M 0 0 L 10 5 L 0 10 z" fill="#34d399"/></marker><marker id="arrow8b5cf6" viewBox="0 0 10 10" refX="8.5" refY="5" markerWidth="6" markerHeight="6" orient="auto"><path d="M 0 0 L 10 5 L 0 10 z" fill="#8b5cf6"/></marker></defs><rect x="0" y="0" width="1600" height="1180" fill="#0b0d1a"/><g stroke="#141931" stroke-width="1" opacity="0.6"><line x1="50" y1="0" x2="50" y2="1180"/><line x1="100" y1="0" x2="100" y2="1180"/><line x1="150" y1="0" x2="150" y2="1180"/><line x1="200" y1="0" x2="200" y2="1180"/><line x1="250" y1="0" x2="250" y2="1180"/><line x1="300" y1="0" x2="300" y2="1180"/><line x1="350" y1="0" x2="350" y2="1180"/><line x1="400" y1="0" x2="400" y2="1180"/><line x1="450" y1="0" x2="450" y2="1180"/><line x1="500" y1="0" x2="500" y2="1180"/><line x1="550" y1="0" x2="550" y2="1180"/><line x1="600" y1="0" x2="600" y2="1180"/><line x1="650" y1="0" x2="650" y2="1180"/><line x1="700" y1="0" x2="700" y2="1180"/><line x1="750" y1="0" x2="750" y2="1180"/><line x1="800" y1="0" x2="800" y2="1180"/><line x1="850" y1="0" x2="850" y2="1180"/><line x1="900" y1="0" x2="900" y2="1180"/><line x1="950" y1="0" x2="950" y2="1180"/><line x1="1000" y1="0" x2="1000" y2="1180"/><line x1="1050" y1="0" x2="1050" y2="1180"/><line x1="1100" y1="0" x2="1100" y2="1180"/><line x1="1150" y1="0" x2="1150" y2="1180"/><line x1="1200" y1="0" x2="1200" y2="1180"/><line x1="1250" y1="0" x2="1250" y2="1180"/><line x1="1300" y1="0" x2="1300" y2="1180"/><line x1="1350" y1="0" x2="1350" y2="1180"/><line x1="1400" y1="0" x2="1400" y2="1180"/><line x1="1450" y1="0" x2="1450" y2="1180"/><line x1="1500" y1="0" x2="1500" y2="1180"/><line x1="1550" y1="0" x2="1550" y2="1180"/><line x1="0" y1="50" x2="1600" y2="50"/><line x1="0" y1="100" x2="1600" y2="100"/><line x1="0" y1="150" x2="1600" y2="150"/><line x1="0" y1="200" x2="1600" y2="200"/><line x1="0" y1="250" x2="1600" y2="250"/><line x1="0" y1="300" x2="1600" y2="300"/><line x1="0" y1="350" x2="1600" y2="350"/><line x1="0" y1="400" x2="1600" y2="400"/><line x1="0" y1="450" x2="1600" y2="450"/><line x1="0" y1="500" x2="1600" y2="500"/><line x1="0" y1="550" x2="1600" y2="550"/><line x1="0" y1="600" x2="1600" y2="600"/><line x1="0" y1="650" x2="1600" y2="650"/><line x1="0" y1="700" x2="1600" y2="700"/><line x1="0" y1="750" x2="1600" y2="750"/><line x1="0" y1="800" x2="1600" y2="800"/><line x1="0" y1="850" x2="1600" y2="850"/><line x1="0" y1="900" x2="1600" y2="900"/><line x1="0" y1="950" x2="1600" y2="950"/><line x1="0" y1="1000" x2="1600" y2="1000"/><line x1="0" y1="1050" x2="1600" y2="1050"/><line x1="0" y1="1100" x2="1600" y2="1100"/><line x1="0" y1="1150" x2="1600" y2="1150"/></g><text x="90" y="82" font-family="Helvetica Neue, Helvetica, Arial, sans-serif" font-size="40" font-weight="700" fill="#e2e8f0" text-anchor="start">LEco DevOps · data flow</text><text x="90" y="122" font-family="Helvetica Neue, Helvetica, Arial, sans-serif" font-size="22" font-weight="400" fill="#94a3b8" text-anchor="start">Three ways in. One control plane. Every deploy ends in a real HTTP probe.</text><g transform="translate(1360 44) scale(0.62)"><rect width="64" height="64" rx="14" fill="#1e2038"/><path fill="none" stroke="#22d3ee" stroke-width="2.5" stroke-linejoin="round" d="M32 9l19 11v24L32 55 13 44V20L32 9z"/><circle cx="32" cy="32" r="10" fill="#22d3ee"/></g><text x="90" y="186" font-family="Helvetica Neue, Helvetica, Arial, sans-serif" font-size="16" font-weight="700" fill="#64748b" text-anchor="start" letter-spacing="0.18em">1 · WHO ASKS</text><rect x="90.0" y="210" width="453.3333333333333" height="120" rx="16" fill="#1e2038" stroke="#333a63" stroke-width="1.5"/><rect x="90.0" y="222" width="5" height="96" rx="3" fill="#22d3ee"/><text x="112.0" y="248" font-family="Helvetica Neue, Helvetica, Arial, sans-serif" font-size="23" font-weight="700" fill="#e2e8f0" text-anchor="start">Browser</text><text x="112.0" y="274" font-family="Helvetica Neue, Helvetica, Arial, sans-serif" font-size="16" font-weight="400" fill="#94a3b8" text-anchor="start">Dashboard UI on *.lh</text><text x="112.0" y="298" font-family="Helvetica Neue, Helvetica, Arial, sans-serif" font-size="16" font-weight="400" fill="#94a3b8" text-anchor="start">Detect → Register → Deploy</text><rect x="573.3333333333333" y="210" width="453.3333333333333" height="120" rx="16" fill="#1e2038" stroke="#333a63" stroke-width="1.5"/><rect x="573.3333333333333" y="222" width="5" height="96" rx="3" fill="#8b5cf6"/><text x="595.3333333333333" y="248" font-family="Helvetica Neue, Helvetica, Arial, sans-serif" font-size="23" font-weight="700" fill="#e2e8f0" text-anchor="start">AI agent</text><text x="595.3333333333333" y="274" font-family="Helvetica Neue, Helvetica, Arial, sans-serif" font-size="16" font-weight="400" fill="#94a3b8" text-anchor="start">MCP · 65 tools</text><text x="595.3333333333333" y="298" font-family="Helvetica Neue, Helvetica, Arial, sans-serif" font-size="16" font-weight="400" fill="#94a3b8" text-anchor="start">stdio or streamable HTTP</text><rect x="1056.6666666666665" y="210" width="453.3333333333333" height="120" rx="16" fill="#1e2038" stroke="#333a63" stroke-width="1.5"/><rect x="1056.6666666666665" y="222" width="5" height="96" rx="3" fill="#34d399"/><text x="1078.6666666666665" y="248" font-family="Helvetica Neue, Helvetica, Arial, sans-serif" font-size="23" font-weight="700" fill="#e2e8f0" text-anchor="start">Git host</text><text x="1078.6666666666665" y="274" font-family="Helvetica Neue, Helvetica, Arial, sans-serif" font-size="16" font-weight="400" fill="#94a3b8" text-anchor="start">HMAC-signed push webhook</text><text x="1078.6666666666665" y="298" font-family="Helvetica Neue, Helvetica, Arial, sans-serif" font-size="16" font-weight="400" fill="#94a3b8" text-anchor="start">branch-filtered pipelines</text><path d="M 316.66666666666663 330 L 316.66666666666663 396" fill="none" stroke="#22d3ee" stroke-width="2.4" stroke-linecap="round" stroke-linejoin="round" marker-end="url(#arrow22d3ee)"/><path d="M 799.9999999999999 330 L 799.9999999999999 396" fill="none" stroke="#8b5cf6" stroke-width="2.4" stroke-linecap="round" stroke-linejoin="round" marker-end="url(#arrow8b5cf6)"/><path d="M 1283.3333333333333 330 L 1283.3333333333333 396" fill="none" stroke="#34d399" stroke-width="2.4" stroke-linecap="round" stroke-linejoin="round" marker-end="url(#arrow34d399)"/><text x="819.9999999999999" y="372" font-family="Helvetica Neue, Helvetica, Arial, sans-serif" font-size="15" font-weight="600" fill="#8b5cf6" text-anchor="start">REST only — no Docker socket</text><text x="90" y="434" font-family="Helvetica Neue, Helvetica, Arial, sans-serif" font-size="16" font-weight="700" fill="#64748b" text-anchor="start" letter-spacing="0.18em">2 · WHERE IT IS DECIDED</text><rect x="90" y="456" width="1420" height="118" rx="18" fill="#252845" stroke="#22d3ee" stroke-width="1.8"/><text x="118" y="502" font-family="Helvetica Neue, Helvetica, Arial, sans-serif" font-size="28" font-weight="700" fill="#e2e8f0" text-anchor="start">LEco DevOps API — the one place that touches Docker</text><text x="118" y="538" font-family="Helvetica Neue, Helvetica, Arial, sans-serif" font-size="18" font-weight="400" fill="#94a3b8" text-anchor="start">control token  ·  lifecycle rules  ·  destructive + credential safety gates  ·  audited activity log</text><text x="1486" y="502" font-family="Menlo, DejaVu Sans Mono, monospace" font-size="18" font-weight="600" fill="#22d3ee" text-anchor="end">dashboard.lh</text><path d="M 800.0 574 L 800.0 640" fill="none" stroke="#22d3ee" stroke-width="2.4" stroke-linecap="round" stroke-linejoin="round" marker-end="url(#arrow22d3ee)"/><text x="90" y="676" font-family="Helvetica Neue, Helvetica, Arial, sans-serif" font-size="16" font-weight="700" fill="#64748b" text-anchor="start" letter-spacing="0.18em">3 · WHAT RUNS, EVERY TIME</text><rect x="90.0" y="700" width="263.2" height="168" rx="16" fill="#1e2038" stroke="#333a63" stroke-width="1.5"/><rect x="90.0" y="712" width="5" height="144" rx="3" fill="#22d3ee"/><text x="112.0" y="738" font-family="Helvetica Neue, Helvetica, Arial, sans-serif" font-size="24" font-weight="700" fill="#e2e8f0" text-anchor="start">Detect</text><text x="112.0" y="764" font-family="Helvetica Neue, Helvetica, Arial, sans-serif" font-size="15" font-weight="400" fill="#94a3b8" text-anchor="start">compose · wrangler</text><text x="112.0" y="787" font-family="Helvetica Neue, Helvetica, Arial, sans-serif" font-size="15" font-weight="400" fill="#94a3b8" text-anchor="start">.env · Dockerfiles</text><text x="112.0" y="810" font-family="Helvetica Neue, Helvetica, Arial, sans-serif" font-size="15" font-weight="400" fill="#94a3b8" text-anchor="start">ports from evidence</text><path d="M 357.2 784 L 373.2 784" fill="none" stroke="#333a63" stroke-width="2.4" stroke-linecap="round" stroke-linejoin="round" marker-end="url(#arrow333a63)"/><rect x="379.2" y="700" width="263.2" height="168" rx="16" fill="#1e2038" stroke="#333a63" stroke-width="1.5"/><rect x="379.2" y="712" width="5" height="144" rx="3" fill="#7dd3fc"/><text x="401.2" y="738" font-family="Helvetica Neue, Helvetica, Arial, sans-serif" font-size="24" font-weight="700" fill="#e2e8f0" text-anchor="start">Convert</text><text x="401.2" y="764" font-family="Helvetica Neue, Helvetica, Arial, sans-serif" font-size="15" font-weight="400" fill="#94a3b8" text-anchor="start">leco.app.yaml</text><text x="401.2" y="787" font-family="Helvetica Neue, Helvetica, Arial, sans-serif" font-size="15" font-weight="400" fill="#94a3b8" text-anchor="start">leco.yaml profile</text><text x="401.2" y="810" font-family="Helvetica Neue, Helvetica, Arial, sans-serif" font-size="15" font-weight="400" fill="#94a3b8" text-anchor="start">hosting slot + symlink</text><path d="M 646.4 784 L 662.4 784" fill="none" stroke="#333a63" stroke-width="2.4" stroke-linecap="round" stroke-linejoin="round" marker-end="url(#arrow333a63)"/><rect x="668.4" y="700" width="263.2" height="168" rx="16" fill="#1e2038" stroke="#333a63" stroke-width="1.5"/><rect x="668.4" y="712" width="5" height="144" rx="3" fill="#a5b4fc"/><text x="690.4" y="738" font-family="Helvetica Neue, Helvetica, Arial, sans-serif" font-size="24" font-weight="700" fill="#e2e8f0" text-anchor="start">Orchestrate</text><text x="690.4" y="764" font-family="Helvetica Neue, Helvetica, Arial, sans-serif" font-size="15" font-weight="400" fill="#94a3b8" text-anchor="start">compose overlay</text><text x="690.4" y="787" font-family="Helvetica Neue, Helvetica, Arial, sans-serif" font-size="15" font-weight="400" fill="#94a3b8" text-anchor="start">lh-network join</text><text x="690.4" y="810" font-family="Helvetica Neue, Helvetica, Arial, sans-serif" font-size="15" font-weight="400" fill="#94a3b8" text-anchor="start">Traefik fragment merge</text><path d="M 935.5999999999999 784 L 951.5999999999999 784" fill="none" stroke="#333a63" stroke-width="2.4" stroke-linecap="round" stroke-linejoin="round" marker-end="url(#arrow333a63)"/><rect x="957.5999999999999" y="700" width="263.2" height="168" rx="16" fill="#1e2038" stroke="#333a63" stroke-width="1.5"/><rect x="957.5999999999999" y="712" width="5" height="144" rx="3" fill="#8b5cf6"/><text x="979.5999999999999" y="738" font-family="Helvetica Neue, Helvetica, Arial, sans-serif" font-size="24" font-weight="700" fill="#e2e8f0" text-anchor="start">Deploy</text><text x="979.5999999999999" y="764" font-family="Helvetica Neue, Helvetica, Arial, sans-serif" font-size="15" font-weight="400" fill="#94a3b8" text-anchor="start">compose up -d --build</text><text x="979.5999999999999" y="787" font-family="Helvetica Neue, Helvetica, Arial, sans-serif" font-size="15" font-weight="400" fill="#94a3b8" text-anchor="start">registry row written</text><text x="979.5999999999999" y="810" font-family="Helvetica Neue, Helvetica, Arial, sans-serif" font-size="15" font-weight="400" fill="#94a3b8" text-anchor="start">certs reissued</text><path d="M 1224.8 784 L 1240.8 784" fill="none" stroke="#333a63" stroke-width="2.4" stroke-linecap="round" stroke-linejoin="round" marker-end="url(#arrow333a63)"/><rect x="1246.8" y="700" width="263.2" height="168" rx="16" fill="#1e2038" stroke="#333a63" stroke-width="1.5"/><rect x="1246.8" y="712" width="5" height="144" rx="3" fill="#34d399"/><text x="1268.8" y="738" font-family="Helvetica Neue, Helvetica, Arial, sans-serif" font-size="24" font-weight="700" fill="#e2e8f0" text-anchor="start">Verify</text><text x="1268.8" y="764" font-family="Helvetica Neue, Helvetica, Arial, sans-serif" font-size="15" font-weight="400" fill="#94a3b8" text-anchor="start">HTTPS probe per origin</text><text x="1268.8" y="787" font-family="Helvetica Neue, Helvetica, Arial, sans-serif" font-size="15" font-weight="400" fill="#94a3b8" text-anchor="start">ok / route_missing /</text><text x="1268.8" y="810" font-family="Helvetica Neue, Helvetica, Arial, sans-serif" font-size="15" font-weight="400" fill="#94a3b8" text-anchor="start">backend / tls / unhealthy</text><text x="90" y="916" font-family="Helvetica Neue, Helvetica, Arial, sans-serif" font-size="16" font-weight="700" fill="#64748b" text-anchor="start" letter-spacing="0.18em">4 · WHAT IT WRITES (BESIDE YOUR REPO, NEVER INSIDE IT)</text><rect x="90.0" y="940" width="338.5" height="72" rx="14" fill="#1e2038" stroke="#333a63" stroke-width="1.5"/><circle cx="116.0" cy="976" r="7" fill="#22d3ee"/><text x="136.0" y="983" font-family="Menlo, DejaVu Sans Mono, monospace" font-size="16" font-weight="400" fill="#e2e8f0" text-anchor="start">hosting/app-available/&lt;slug&gt;/</text><rect x="450.5" y="940" width="338.5" height="72" rx="14" fill="#1e2038" stroke="#333a63" stroke-width="1.5"/><circle cx="476.5" cy="976" r="7" fill="#a5b4fc"/><text x="496.5" y="983" font-family="Menlo, DejaVu Sans Mono, monospace" font-size="16" font-weight="400" fill="#e2e8f0" text-anchor="start">config/leco-registry.yaml</text><rect x="811.0" y="940" width="338.5" height="72" rx="14" fill="#1e2038" stroke="#333a63" stroke-width="1.5"/><circle cx="837.0" cy="976" r="7" fill="#8b5cf6"/><text x="857.0" y="983" font-family="Menlo, DejaVu Sans Mono, monospace" font-size="16" font-weight="400" fill="#e2e8f0" text-anchor="start">hosting/traefik/*.yml</text><rect x="1171.5" y="940" width="338.5" height="72" rx="14" fill="#1e2038" stroke="#333a63" stroke-width="1.5"/><circle cx="1197.5" cy="976" r="7" fill="#34d399"/><text x="1217.5" y="983" font-family="Menlo, DejaVu Sans Mono, monospace" font-size="16" font-weight="400" fill="#e2e8f0" text-anchor="start">docker compose project</text><path d="M 800.0 1012 L 800.0 1052" fill="none" stroke="#34d399" stroke-width="2.4" stroke-linecap="round" stroke-linejoin="round" marker-end="url(#arrow34d399)"/><rect x="90" y="1060" width="1420" height="76" rx="16" fill="#252845" stroke="#34d399" stroke-width="1.8"/><text x="118" y="1106" font-family="Helvetica Neue, Helvetica, Arial, sans-serif" font-size="21" font-weight="600" fill="#e2e8f0" text-anchor="start">https://myapp.lh  ·  https://api.myapp.lh  —  trusted TLS, hostname routing, same shape as production</text><text x="1486" y="1106" font-family="Helvetica Neue, Helvetica, Arial, sans-serif" font-size="18" font-weight="700" fill="#34d399" text-anchor="end">verified 200 OK</text></svg>